<?xml version="1.0" standalone="no"?><!DOCTYPE svg PUBLIC "-//W3C//DTD SVG 1.1//EN" "http://www.w3.org/Graphics/SVG/1.1/DTD/svg11.dtd"><svg t="1501558395592" class="icon" style="" viewBox="0 0 1024 1024" version="1.1" xmlns="http://www.w3.org/2000/svg" p-id="539" xmlns:xlink="http://www.w3.org/1999/xlink" width="48" height="48"><defs><style type="text/css"></style></defs><path d="M937.6 313.6 704 275.2l-102.4-217.6C585.6 22.4 550.4 0 512 0c-38.4 0-73.6 22.4-89.6 57.6L320 275.2 86.4 313.6c-38.4 6.4-67.2 32-80 67.2-12.8 35.2-3.2 76.8 22.4 102.4l172.8 179.2L160 905.6c-6.4 38.4 9.6 76.8 41.6 99.2 32 22.4 70.4 25.6 105.6 6.4l204.8-112 204.8 112c16 9.6 32 12.8 48 12.8 19.2 0 41.6-6.4 57.6-19.2 32-22.4 48-60.8 41.6-99.2l-41.6-246.4 172.8-179.2c25.6-28.8 35.2-67.2 22.4-102.4C1008 342.4 976 316.8 937.6 313.6z" p-id="540" fill="#cccccc"></path></svg>